<svg width="115" height="28" viewBox="0 0 115 28" fill="none" xmlns="http://www.w3.org/2000/svg">
<mask id="mask0_35_99" style="mask-type:luminance" maskUnits="userSpaceOnUse" x="0" y="0" width="115" height="28">
<path d="M114.743 0H0V27.0273H114.743V0Z" fill="white"/>
</mask>
<g mask="url(#mask0_35_99)">
<path fill-rule="evenodd" clip-rule="evenodd" d="M44.8851 7.46582H42.9489L35.9588 16.9252V7.46582H33.8928V19.6324H35.9032L42.8196 10.3277V19.6324H44.8851V7.46582Z" fill="white"/>
<path fill-rule="evenodd" clip-rule="evenodd" d="M58.8588 7.46582H56.7858V12.5481H50.2184V7.46582H48.1641V12.5481V14.2546V19.6335H50.2184V14.2546H56.7858V19.6335H58.8588V14.2546V12.5481V7.46582Z" fill="white"/>
<path fill-rule="evenodd" clip-rule="evenodd" d="M72.8289 7.46582H70.7557V12.5481H64.1884V7.46582H62.134V12.5481V14.2546V19.6335H64.1884V14.2546H70.7557V19.6335H72.8289V14.2546V12.5481V7.46582Z" fill="white"/>
<path fill-rule="evenodd" clip-rule="evenodd" d="M81.4789 7.46582L80.1904 7.59055L78.9979 7.96387L77.9288 8.55069L77.0113 9.31449L76.2603 10.2257L75.6931 11.255L75.3354 12.3714L75.2166 13.5425L75.2445 14.1125L75.469 15.2308L75.9132 16.3093L76.5496 17.2882L77.3694 18.1485L78.3489 18.8363L79.4818 19.3338L80.7543 19.5869L81.4423 19.6186L82.0984 19.588L83.339 19.3432L84.4765 18.8618L85.4701 18.1908L85.7718 17.9141H81.4607L80.996 17.8919L79.7394 17.5595L78.7145 16.8806L77.9519 15.9288L77.4689 14.7797L77.3038 13.5425L77.3217 13.1393L77.588 11.9554L78.1524 10.8764L78.9934 9.99368L80.1012 9.39635L81.4607 9.18756H85.7661L85.5462 8.97352L84.5666 8.27332L83.4273 7.76034L82.159 7.49845L81.4789 7.46582Z" fill="white"/>
<path fill-rule="evenodd" clip-rule="evenodd" d="M85.7706 9.18774H81.4651L81.9211 9.20987L82.3555 9.27651L83.5254 9.73584L84.4681 10.5126L85.1427 11.5317L85.514 12.7133L85.5847 13.5427L85.5675 13.9387L85.3104 15.1203L84.7591 16.2123L83.9299 17.1058L82.8245 17.7052L81.4651 17.9143H85.7762L86.663 16.8758L87.2237 15.8462L87.5743 14.7276L87.6904 13.5593L87.6623 12.9971L87.4381 11.8917L86.9948 10.821L86.363 9.84177L85.9786 9.39017L85.7706 9.18774Z" fill="white"/>
<path fill-rule="evenodd" clip-rule="evenodd" d="M96.9997 7.46582H90.3762V19.6324H96.5112L97.0428 19.609L98.5022 19.2556L99.6504 18.5069L100.071 17.9702H92.4029V14.2518H99.5847L99.4822 14.142L99.0743 13.8298L98.609 13.5806L98.0857 13.3951L98.5034 13.1813L98.8706 12.9175L99.0799 12.7096H92.4029V9.1281H99.5972L99.579 9.08552L98.8766 8.16326L97.8434 7.57948L97.437 7.4943L96.9997 7.46582Z" fill="white"/>
<path fill-rule="evenodd" clip-rule="evenodd" d="M99.5849 14.2534H96.6375L96.8914 14.2699L97.1284 14.3197L98.1671 15.2044L98.3935 16.1383L98.378 16.3819L97.8594 17.4322L96.7748 17.9562L96.5107 17.9717H100.072L100.174 17.809L100.342 17.4062L100.442 16.9692L100.475 16.498L100.435 15.9375L100.314 15.4201L100.114 14.9477L99.8328 14.5186L99.5849 14.2534Z" fill="white"/>
<path fill-rule="evenodd" clip-rule="evenodd" d="M99.6018 9.12842H96.2435L96.4806 9.14279L96.703 9.18621L97.6917 9.99398L97.9089 10.9276L97.8942 11.1778L97.3973 12.2044L96.135 12.7099H99.0844L99.8165 11.4311L99.9367 10.5678L99.9146 10.1859L99.8483 9.81174L99.738 9.44505L99.6018 9.12842Z" fill="white"/>
<path fill-rule="evenodd" clip-rule="evenodd" d="M108.532 7.46582L107.243 7.59055L106.051 7.96387L104.982 8.55069L104.064 9.31449L103.313 10.2257L102.746 11.255L102.388 12.3714L102.269 13.5425L102.297 14.1125L102.522 15.2308L102.966 16.3093L103.602 17.2882L104.422 18.1485L105.402 18.8363L106.535 19.3338L107.807 19.5869L108.495 19.6186L109.151 19.588L110.392 19.3432L111.529 18.8618L112.523 18.1908L112.825 17.9141H108.514L108.049 17.8919L106.792 17.5595L105.768 16.8806L105.005 15.9288L104.522 14.7797L104.357 13.5425L104.375 13.1393L104.641 11.9554L105.205 10.8764L106.046 9.99368L107.154 9.39635L108.514 9.18756H112.819L112.599 8.97352L111.619 8.27332L110.48 7.76034L109.212 7.49845L108.532 7.46582Z" fill="white"/>
<path fill-rule="evenodd" clip-rule="evenodd" d="M112.823 9.18774H108.518L108.973 9.20987L109.408 9.27651L110.578 9.73584L111.52 10.5126L112.195 11.5317L112.566 12.7133L112.637 13.5427L112.62 13.9387L112.363 15.1203L111.811 16.2123L110.982 17.1058L109.877 17.7052L108.518 17.9143H112.828L113.715 16.8758L114.276 15.8462L114.627 14.7276L114.743 13.5593L114.715 12.9971L114.491 11.8917L114.047 10.821L113.415 9.84177L113.031 9.39017L112.823 9.18774Z" fill="white"/>
<path fill-rule="evenodd" clip-rule="evenodd" d="M15.2246 14.8886L14.0185 14.7866L12.854 14.5474L11.8506 14.2264L11.1261 13.8803L11.6999 15.3286L9.93721 15.7345L8.31277 15.7904L6.834 15.5751L5.50747 15.1657L4.33998 14.6406L3.16504 13.8981L2.67927 13.4705L9.4324 7.19779L9.48828 6.34828L9.69522 5.42739L10.043 4.49711L10.5235 3.61938L0 13.4078L0.789028 14.3361L2.4765 15.7486L3.83457 16.4848L5.20036 17.0218L6.45288 17.3733L8.02142 17.6L8.5741 17.6217L9.12708 17.617L10.7456 17.4525L11.9948 17.1679L12.3884 17.0417L12.5032 17.533L12.7458 18.7696L13.9445 17.5301L14.6025 16.7123L14.9518 15.9532L15.2246 14.8886Z" fill="white"/>
<path fill-rule="evenodd" clip-rule="evenodd" d="M20.1796 14.9535L18.8465 13.8385L17.968 13.2263L17.1516 12.9019L16.007 12.6475L15.8973 13.77L15.6399 14.8529L15.2952 15.7861L14.9233 16.4601L16.48 15.9261L16.9162 17.5657L16.9768 19.077L16.7451 20.4528L16.3049 21.6864L15.7406 22.772L14.9424 23.865L14.4827 24.3168L7.73913 18.0352L6.82553 17.9833L5.83583 17.7913L4.8354 17.4676L3.89209 17.0204L14.4156 26.8087L15.4135 26.0754L16.9319 24.5054L17.7231 23.2425L18.3007 21.9718L18.6786 20.8067L18.9217 19.348L18.9454 18.8336L18.9405 18.3195L18.7632 16.8141L18.4576 15.6521L18.3221 15.2856L18.8497 15.1792L20.1796 14.9535Z" fill="white"/>
<path fill-rule="evenodd" clip-rule="evenodd" d="M24.9372 9.78837L14.4137 0L14.2433 0.11504L13.8842 0.371668L12.9156 1.16146L11.8968 2.30329L11.1056 3.56625L10.5283 4.83694L10.1504 6.00201L9.90693 7.46075L9.88374 7.97456L9.8885 8.4892L10.0654 9.99468L10.3716 11.1567L10.5072 11.5231L9.97917 11.6296L8.64966 11.8552L9.98245 12.9702L11.6771 13.9069L12.8217 14.1613L12.9314 13.0388L13.1885 11.9559L13.5337 11.0223L13.9059 10.3486L12.3493 10.8826L11.9125 9.24304L11.8522 7.73176L12.0838 6.35597L12.5238 5.12233L13.0886 4.03664L13.8866 2.94376L14.3465 2.49189L21.0901 8.77348L22.0034 8.82547L22.9934 9.01738L23.9933 9.34121L24.9372 9.78837Z" fill="white"/>
<path fill-rule="evenodd" clip-rule="evenodd" d="M28.8188 13.4074L28.0304 12.4791L26.3427 11.0663L24.9852 10.3304L23.6189 9.79335L22.3669 9.44186L20.798 9.21538L20.2456 9.19325L19.6923 9.19824L18.0738 9.36277L16.8247 9.64761L16.4308 9.77343L16.3163 9.28231L16.0734 8.0459L14.8749 9.28507L13.868 10.8619L13.5945 11.9266L14.8012 12.0286L15.9655 12.2681L16.9692 12.5889L17.6933 12.9351L17.1192 11.4871L18.8825 11.0809L20.5066 11.0248L21.9857 11.2402L23.3122 11.6495L24.4792 12.1746L25.6541 12.9171L26.1399 13.3444L19.3868 19.6174L19.3309 20.4669L19.1246 21.3881L18.7764 22.3183L18.2957 23.1961L28.8188 13.4074Z" fill="white"/>
</g>
</svg>
