<svg xmlns="http://www.w3.org/2000/svg" width="127" height="32.78" viewBox="0 0 79 20" fill="none">
    <path fill-rule="evenodd" clip-rule="evenodd" d="M30.8113 5.51025H29.4822L24.6838 12.4911V5.51025H23.2656V14.489H24.6456L29.3934 7.62229V14.489H30.8113V5.51025Z" fill="black">
    </path>
    <path fill-rule="evenodd" clip-rule="evenodd" d="M40.402 5.51025H38.9789V9.26087H34.4707V5.51025H33.0605V9.26087V10.5203V14.4898H34.4707V10.5203H38.9789V14.4898H40.402V10.5203V9.26087V5.51025Z" fill="black">
    </path>
    <path fill-rule="evenodd" clip-rule="evenodd" d="M49.9938 5.51025H48.5707V9.26087H44.0625V5.51025H42.6523V9.26087V10.5203V14.4898H44.0625V10.5203H48.5707V14.4898H49.9938V10.5203V9.26087V5.51025Z" fill="black">
    </path>
    <path fill-rule="evenodd" clip-rule="evenodd" d="M55.9315 5.5102L55.047 5.60225L54.2284 5.87775L53.4945 6.31082L52.8647 6.87449L52.3492 7.54694L51.9598 8.30653L51.7143 9.13041L51.6327 9.99469L51.6519 10.4153L51.806 11.2406L52.1109 12.0365L52.5478 12.759L53.1105 13.3939L53.7829 13.9014L54.5606 14.2686L55.4341 14.4553L55.9064 14.4788L56.3568 14.4561L57.2084 14.2755L57.9892 13.9202L58.6713 13.4251L58.8784 13.2208H55.919L55.6 13.2045L54.7374 12.9592L54.0339 12.4582L53.5104 11.7557L53.1788 10.9078L53.0655 9.99469L53.0778 9.69714L53.2606 8.82347L53.648 8.02714L54.2253 7.37572L54.9858 6.9349L55.919 6.78082H58.8745L58.7235 6.62286L58.0511 6.10612L57.269 5.72755L56.3984 5.53429L55.9315 5.5102Z" fill="black">
    </path>
    <path fill-rule="evenodd" clip-rule="evenodd" d="M58.8754 6.78076H55.9199L56.233 6.79709L56.5311 6.84627L57.3342 7.18525L57.9814 7.75852L58.4444 8.51056L58.6993 9.3826L58.7479 9.99464L58.736 10.2869L58.5595 11.1589L58.1811 11.9648L57.612 12.6242L56.8532 13.0665L55.9199 13.2208H58.8793L59.4881 12.4544L59.873 11.6946L60.1136 10.8691L60.1934 10.0069L60.174 9.59199L60.0201 8.77627L59.7158 7.98607L59.2822 7.26342L59.0183 6.93015L58.8754 6.78076Z" fill="black">
    </path>
    <path fill-rule="evenodd" clip-rule="evenodd" d="M66.5875 5.5102H62.0408V14.489H66.2522L66.6171 14.4716L67.6189 14.2108L68.4071 13.6584L68.6959 13.2622H63.432V10.5182H68.362L68.2916 10.4371L68.0116 10.2067L67.6922 10.0229L67.333 9.88592L67.6197 9.72816L67.8718 9.53347L68.0155 9.38H63.432V6.73694H68.3706L68.3581 6.70551L67.8759 6.0249L67.1667 5.59408L66.8877 5.53122L66.5875 5.5102Z" fill="black">
    </path>
    <path fill-rule="evenodd" clip-rule="evenodd" d="M68.3623 10.5182H66.3389L66.5133 10.5304L66.6759 10.5672L67.389 11.22L67.5443 11.9092L67.5337 12.089L67.1777 12.8641L66.4332 13.2508L66.252 13.2623H68.6963L68.7669 13.1423L68.8816 12.8449L68.9504 12.5225L68.9733 12.1747L68.9457 11.761L68.8628 11.3792L68.7253 11.0306L68.5323 10.7139L68.3623 10.5182Z" fill="black">
    </path>
    <path fill-rule="evenodd" clip-rule="evenodd" d="M68.372 6.73694H66.0667L66.2294 6.74755L66.3821 6.77959L67.0608 7.37572L67.2099 8.06469L67.1998 8.24939L66.8587 9.00694L65.9922 9.38H68.0168L68.5194 8.43633L68.6019 7.79918L68.5867 7.51735L68.5412 7.24122L68.4655 6.97061L68.372 6.73694Z" fill="black">
    </path>
    <path fill-rule="evenodd" clip-rule="evenodd" d="M74.5021 5.51025L73.6174 5.6023L72.7988 5.8778L72.065 6.31087L71.4352 6.87454L70.9197 7.54699L70.5303 8.30658L70.2848 9.13046L70.2031 9.99474L70.2223 10.4154L70.3764 11.2407L70.6813 12.0366L71.1182 12.759L71.6809 13.3939L72.3533 13.9015L73.1311 14.2686L74.0046 14.4554L74.4768 14.4788L74.9274 14.4562L75.7788 14.2756L76.5596 13.9203L77.2417 13.4251L77.4488 13.2209H74.4897L74.1705 13.2045L73.3078 12.9592L72.6046 12.4582L72.0809 11.7558L71.7495 10.9078L71.6364 9.99474L71.6484 9.69719L71.8311 8.82352L72.2184 8.02719L72.7958 7.37577L73.5564 6.93495L74.4897 6.78087H77.445L77.2939 6.62291L76.6215 6.10617L75.8394 5.7276L74.969 5.53433L74.5021 5.51025Z" fill="black">
    </path>
    <path fill-rule="evenodd" clip-rule="evenodd" d="M77.4455 6.78076H74.4902L74.8031 6.79709L75.1012 6.84627L75.9043 7.18525L76.5515 7.75852L77.0145 8.51056L77.2694 9.3826L77.318 9.99464L77.3061 10.2869L77.1296 11.1589L76.7513 11.9648L76.1823 12.6242L75.4233 13.0665L74.4902 13.2208H77.4494L78.0582 12.4544L78.4431 11.6946L78.6837 10.8691L78.7635 10.0069L78.7443 9.59199L78.5904 8.77627L78.2859 7.98607L77.8523 7.26342L77.5884 6.93015L77.4455 6.78076Z" fill="black">
    </path>
    <path fill-rule="evenodd" clip-rule="evenodd" d="M10.451 10.9873L9.62306 10.912L8.82368 10.7355L8.1349 10.4986L7.63755 10.2433L8.03143 11.312L6.82143 11.6116L5.70633 11.6529L4.69122 11.4939L3.78062 11.1918L2.97919 10.8043L2.17265 10.2563L1.83919 9.94082L6.4749 5.31163L6.51326 4.6847L6.65531 4.0051L6.89408 3.31857L7.22387 2.67082L0 9.89449L0.541631 10.5796L1.7 11.622L2.63225 12.1653L3.5698 12.5616L4.4296 12.821L5.50633 12.9884L5.88572 13.0043L6.26531 13.0008L7.37632 12.8794L8.23388 12.6694L8.50408 12.5763L8.58286 12.9388L8.74939 13.8514L9.57224 12.9367L10.0239 12.3333L10.2637 11.7731L10.451 10.9873Z" fill="#68C6E2">
    </path>
    <path fill-rule="evenodd" clip-rule="evenodd" d="M13.8505 11.0347L12.9354 10.2119L12.3324 9.76003L11.772 9.52064L10.9862 9.33289L10.9109 10.1613L10.7342 10.9604L10.4977 11.6492L10.2424 12.1466L11.3109 11.7525L11.6103 12.9625L11.652 14.0778L11.493 15.0931L11.1907 16.0035L10.8034 16.8047L10.2554 17.6113L9.93992 17.9447L5.31074 13.309L4.6836 13.2706L4.00421 13.129L3.31747 12.89L2.66992 12.56L9.89379 19.7837L10.5789 19.2425L11.6212 18.0839L12.1642 17.1519L12.5607 16.2141L12.8201 15.3543L12.9871 14.2778L13.0034 13.8982L12.9999 13.5188L12.8783 12.4078L12.6685 11.5502L12.5754 11.2798L12.9377 11.2013L13.8505 11.0347Z" fill="#68C6E2">
    </path>
    <path fill-rule="evenodd" clip-rule="evenodd" d="M17.1181 7.22367L9.89423 0L9.7773 0.084898L9.53076 0.274285L8.86587 0.857142L8.16648 1.69979L7.62342 2.63184L7.2271 3.56959L6.96771 4.42939L6.80056 5.50592L6.78464 5.8851L6.78791 6.2649L6.90934 7.37592L7.11954 8.23347L7.2126 8.50388L6.85015 8.58245L5.9375 8.74898L6.8524 9.57183L8.01567 10.2631L8.80138 10.4508L8.87669 9.62245L9.05322 8.82326L9.29016 8.13429L9.54566 7.63714L8.4771 8.03122L8.1773 6.82122L8.13587 5.70592L8.29485 4.69061L8.59689 3.7802L8.98465 2.97898L9.5324 2.17245L9.84811 1.83898L14.4773 6.47469L15.1042 6.51306L15.7838 6.65469L16.4702 6.89367L17.1181 7.22367Z" fill="#68C6E2">
    </path>
    <path fill-rule="evenodd" clip-rule="evenodd" d="M19.7828 9.8949L19.2416 9.2098L18.0831 8.16714L17.1512 7.62408L16.2133 7.22776L15.3539 6.96837L14.2769 6.80123L13.8977 6.7849L13.5179 6.78857L12.4069 6.91L11.5494 7.12021L11.279 7.21306L11.2004 6.85061L11.0337 5.93816L10.211 6.85265L9.51978 8.01633L9.33203 8.80204L10.1604 8.87735L10.9596 9.05408L11.6486 9.29082L12.1457 9.54633L11.7516 8.47776L12.962 8.17796L14.0769 8.13653L15.0922 8.29551L16.0028 8.59755L16.8039 8.9851L17.6104 9.53306L17.9439 9.84837L13.3082 14.4778L13.2698 15.1047L13.1282 15.7845L12.8892 16.471L12.5592 17.1188L19.7828 9.8949Z" fill="#68C6E2">
    </path>
</svg>