<svg width="48" height="48" viewBox="0 0 48 48" fill="none" xmlns="http://www.w3.org/2000/svg">
<g clip-path="url(#clip0_183_38)">
<path fill-rule="evenodd" clip-rule="evenodd" d="M25 27.3976L23.0195 27.2157L21.1073 26.7895L19.4596 26.2174L18.2699 25.6009L19.2121 28.1817L16.3176 28.9052L13.6502 29.0049L11.2219 28.621L9.04368 27.8914L7.12657 26.9556L5.19723 25.6323L4.39956 24.8704L15.4887 13.6914L15.5805 12.1774L15.9203 10.5362L16.4914 8.87834L17.2803 7.31409L0 24.7585L1.29564 26.413L4.0666 28.9303L6.29665 30.2423L8.53937 31.1993L10.5961 31.8258L13.1718 32.23L14.0793 32.2684L14.9873 32.26L17.645 31.9668L19.6964 31.4597L20.3427 31.2348L20.5312 32.1102L20.9296 34.3141L22.8979 32.1052L23.9783 30.648L24.552 29.2952L25 27.3976Z" fill="#68C6E2"/>
<path fill-rule="evenodd" clip-rule="evenodd" d="M33 27.3851L30.7901 25.4168L29.3339 24.3359L27.9806 23.7632L26.083 23.3141L25.9012 25.2958L25.4744 27.2073L24.9033 28.8551L24.2868 30.0449L26.8671 29.1022L27.5901 31.9967L27.6908 34.6647L27.3069 37.0934L26.5768 39.2712L25.6416 41.1878L24.3182 43.1174L23.5563 43.9149L12.3773 32.8256L10.8628 32.7337L9.22218 32.395L7.56377 31.8233L6 31.0338L23.4449 48.3141L25.0994 47.0194L27.6165 44.2479L28.9278 42.0184L29.8853 39.775L30.5117 37.7183L30.915 35.1431L30.9543 34.235L30.9459 33.3274L30.6522 30.6698L30.1456 28.6182L29.9208 27.9714L30.7957 27.7836L33 27.3851Z" fill="#68C6E2"/>
<path fill-rule="evenodd" clip-rule="evenodd" d="M41 18.2855L23.5551 0.314087L23.2727 0.5253L22.6774 0.996466L21.0717 2.44653L19.3828 4.54291L18.0713 6.8617L17.1143 9.19468L16.4879 11.3337L16.0842 14.012L16.0458 14.9553L16.0537 15.9002L16.3469 18.6643L16.8545 20.7977L17.0792 21.4704L16.204 21.6659L14 22.0802L16.2094 24.1273L19.0186 25.8471L20.916 26.3141L21.0978 24.2533L21.5241 22.265L22.0963 20.551L22.7133 19.3141L20.1329 20.2945L19.4089 17.2842L19.3088 14.5095L19.6928 11.9836L20.4222 9.71865L21.3586 7.72534L22.6813 5.71881L23.4437 4.88919L34.6227 16.4221L36.1366 16.5176L37.7778 16.8699L39.4354 17.4645L41 18.2855Z" fill="#68C6E2"/>
<path fill-rule="evenodd" clip-rule="evenodd" d="M48 24.8692L46.6536 23.2147L43.7714 20.6968L41.453 19.3854L39.1196 18.4283L36.9815 17.8019L34.3021 17.3983L33.3587 17.3589L32.4138 17.3677L29.6498 17.661L27.5165 18.1686L26.8438 18.3928L26.6482 17.5176L26.2335 15.3141L24.1868 17.5225L22.4671 20.3326L22 22.23L24.0609 22.4119L26.0492 22.8387L27.7633 23.4104L29 24.0274L28.0195 21.4469L31.0308 20.723L33.8045 20.6229L36.3305 21.0068L38.5959 21.7362L40.5889 22.6721L42.5954 23.9954L43.4251 24.7568L31.8921 35.9364L31.7966 37.4503L31.4443 39.0919L30.8497 40.7497L30.0287 42.3141L48 24.8692Z" fill="#68C6E2"/>
</g>
<defs>
<clipPath id="clip0_183_38">
<rect width="48" height="48" fill="white"/>
</clipPath>
</defs>
</svg>
