<svg width="24" height="24" viewBox="0 0 24 24" fill="none" xmlns="http://www.w3.org/2000/svg">
<path d="M7 5L7 4L7 5ZM5 7H4H5ZM5 19H4H5ZM17 5V4V5ZM11 7V8V7ZM13 7L13 8L13 7ZM11 3V2V3ZM13 3V2V3ZM12 11H11V13H12V12V11ZM15 13H16V11H15V12V13ZM12 15H11V17H12V16V15ZM15 17H16V15H15V16V17ZM9 11C8.44772 11 8 11.4477 8 12C8 12.5523 8.44772 13 9 13V12V11ZM9.01 13C9.56228 13 10.01 12.5523 10.01 12C10.01 11.4477 9.56228 11 9.01 11V12V13ZM9 15C8.44772 15 8 15.4477 8 16C8 16.5523 8.44772 17 9 17V16V15ZM9.01 17C9.56228 17 10.01 16.5523 10.01 16C10.01 15.4477 9.56228 15 9.01 15V16V17ZM9 5V4H7V5V6H9V5ZM7 5L7 4C6.20435 4 5.44129 4.31607 4.87868 4.87868L5.58579 5.58579L6.29289 6.29289C6.48043 6.10536 6.73478 6 7 6L7 5ZM5.58579 5.58579L4.87868 4.87868C4.31607 5.44129 4 6.20435 4 7L5 7L6 7C6 6.73478 6.10536 6.48043 6.29289 6.29289L5.58579 5.58579ZM5 7H4V19H5H6V7H5ZM5 19H4C4 19.7956 4.31607 20.5587 4.87868 21.1213L5.58579 20.4142L6.29289 19.7071C6.10536 19.5196 6 19.2652 6 19H5ZM5.58579 20.4142L4.87868 21.1213C5.44129 21.6839 6.20435 22 7 22V21V20C6.73478 20 6.48043 19.8946 6.29289 19.7071L5.58579 20.4142ZM7 21V22H17V21V20H7V21ZM17 21V22C17.7957 22 18.5587 21.6839 19.1213 21.1213L18.4142 20.4142L17.7071 19.7071C17.5196 19.8946 17.2652 20 17 20V21ZM18.4142 20.4142L19.1213 21.1213C19.6839 20.5587 20 19.7957 20 19H19H18C18 19.2652 17.8946 19.5196 17.7071 19.7071L18.4142 20.4142ZM19 19H20V7H19H18V19H19ZM19 7H20C20 6.20435 19.6839 5.44129 19.1213 4.87868L18.4142 5.58579L17.7071 6.29289C17.8946 6.48043 18 6.73478 18 7H19ZM18.4142 5.58579L19.1213 4.87868C18.5587 4.31607 17.7956 4 17 4L17 5L17 6C17.2652 6 17.5196 6.10536 17.7071 6.29289L18.4142 5.58579ZM17 5V4H15V5V6H17V5ZM9 5H8C8 5.79565 8.31607 6.55871 8.87868 7.12132L9.58579 6.41421L10.2929 5.70711C10.1054 5.51957 10 5.26522 10 5H9ZM9.58579 6.41421L8.87868 7.12132C9.44129 7.68393 10.2044 8 11 8L11 7L11 6C10.7348 6 10.4804 5.89464 10.2929 5.70711L9.58579 6.41421ZM11 7V8H13V7V6H11V7ZM13 7L13 8C13.7956 8 14.5587 7.68393 15.1213 7.12132L14.4142 6.41421L13.7071 5.70711C13.5196 5.89464 13.2652 6 13 6L13 7ZM14.4142 6.41421L15.1213 7.12132C15.6839 6.55871 16 5.79565 16 5H15H14C14 5.26522 13.8946 5.51957 13.7071 5.70711L14.4142 6.41421ZM9 5H10C10 4.73478 10.1054 4.48043 10.2929 4.29289L9.58579 3.58579L8.87868 2.87868C8.31607 3.44129 8 4.20435 8 5H9ZM9.58579 3.58579L10.2929 4.29289C10.4804 4.10536 10.7348 4 11 4V3V2C10.2044 2 9.44129 2.31607 8.87868 2.87868L9.58579 3.58579ZM11 3V4H13V3V2H11V3ZM13 3V4C13.2652 4 13.5196 4.10536 13.7071 4.29289L14.4142 3.58579L15.1213 2.87868C14.5587 2.31607 13.7956 2 13 2V3ZM14.4142 3.58579L13.7071 4.29289C13.8946 4.48043 14 4.73478 14 5H15H16C16 4.20435 15.6839 3.44129 15.1213 2.87868L14.4142 3.58579ZM12 12V13H15V12V11H12V12ZM12 16V17H15V16V15H12V16ZM9 12V13H9.01V12V11H9V12ZM9 16V17H9.01V16V15H9V16Z" fill="currentColor"/>
</svg>
